<?xml version="1.0" encoding="utf-8"?>
<!-- Generator: Adobe Illustrator 24.1.3, SVG Export Plug-In . SVG Version: 6.00 Build 0)  -->
<svg version="1.0" id="Capa_1" xmlns="http://www.w3.org/2000/svg" xmlns:xlink="http://www.w3.org/1999/xlink" x="0px" y="0px"
	 viewBox="0 0 512 512" style="enable-background:new 0 0 512 512;" xml:space="preserve">
<style type="text/css">
	.st0{fill:#FFFFFF;}
</style>
<path class="st0" d="M467,61H45C20.2,61,0,81.2,0,106v300c0,24.8,20.2,45,45,45h422c24.8,0,45-20.2,45-45V106
	C512,81.2,491.8,61,467,61z M401.8,91L256,199.8L110.2,91H401.8z M45,91h15l187,139.5c2.7,2,5.8,3,9,3s6.3-1,9-3L452,91h15
	c8.3,0,15,6.7,15,15L256,274.8L30,106C30,97.7,36.7,91,45,91z M247,305.5c2.7,2,5.8,3,9,3c3.2,0,6.3-1,9-3l157-117.3V421H90V188.2
	L247,305.5z M30,406V143.4l30,22.4V421H45C36.7,421,30,414.3,30,406z M467,421h-15V165.8l30-22.4V406C482,414.3,475.3,421,467,421z"
	/>
</svg>
